<!-- Generated by IcoMoon.io -->
<svg version="1.1" xmlns="http://www.w3.org/2000/svg" width="1024" height="1024" viewBox="0 0 1024 1024">
<title></title>
<g id="icomoon-ignore">
</g>
<path d="M456.724 504.131s47.212-17.555 47.212-78.686-40.429-86.555-94.423-86.555h-180.978v346.218h180.978s102.292 0 102.292-102.292c0 0 0-78.686-55.080-78.686zM307.221 401.84h102.292s23.606 0 23.606 31.474c0 35.566-15.737 39.343-31.474 39.343h-94.423zM401.644 622.16h-94.423v-86.555l99.073-0.559s34.693 0.559 34.693 47.77c0 39.343-25.109 38.957-39.343 39.343z"></path>
<path d="M826.744 71.358c69.545 0 125.898 56.353 125.898 125.898v0 629.488c0 69.545-56.353 125.898-125.898 125.898v0h-629.488c-69.545 0-125.898-56.353-125.898-125.898v0-629.488c0-69.545 56.353-125.898 125.898-125.898v0h629.488zM826.744 8.41h-629.488c-104.176 0.313-188.533 84.671-188.846 188.831v629.503c0.313 104.176 84.671 188.533 188.831 188.846h629.503c104.176-0.313 188.533-84.671 188.846-188.831v-629.503c-0.313-104.176-84.671-188.533-188.831-188.846h-0.015z"></path>
<path d="M675.674 424.621c-131.319 0-131.248 131.248-131.248 131.248s-7.239 129.36 133.066 129.36c0 0 118.029 10.945 118.029-86.555h-62.949s1.888 33.678-55.080 33.678c0 0-62.949 6.224-62.949-57.283h180.978s18.397-150.448-119.847-150.448zM732.572 527.857h-118.029s9.757-53.192 62.461-53.192 55.568 53.192 55.568 53.192z"></path>
<path d="M598.807 354.433h149.503v47.212h-149.503v-47.212z"></path>
</svg>
