<!-- Generated by IcoMoon.io -->
<svg version="1.1" xmlns="http://www.w3.org/2000/svg" width="1024" height="1024" viewBox="0 0 1024 1024">
<title></title>
<g id="icomoon-ignore">
</g>
<path fill="#000" d="M751.045 866.812c-4.342-25.775-27.169-151.428-83.287-305.584 138.123-22.102 257.819 15.81 266.67 18.707-9.315 57.821-30.391 113.115-61.936 162.456-31.545 49.348-72.88 91.693-121.449 124.421zM511.935 939.91c-99.543 0.144-195.997-34.562-272.627-98.095 5.679 4.565 9.632 7.46 9.632 7.46s82.005-178.876 335.813-267.283c0.89-0.389 1.892-0.557 2.839-0.89 60.238 156.438 85.067 287.437 91.413 324.848-52.821 22.436-109.624 33.989-167.014 33.96h-0.056zM84.038 511.959c0-4.565 0.224-9.019 0.333-13.528 7.572 0.168 219.014 5.011 439.309-60.961 12.245 23.939 23.937 48.434 34.738 72.764-5.674 1.527-11.301 3.237-16.868 5.122-230.925 74.601-348.060 282.314-348.060 282.314l0.168 0.224c-70.719-78.431-109.802-180.328-109.675-285.933h0.056zM329.33 125.037c57.665 79.057 110.733 161.365 158.943 246.516-205.43 54.559-383.804 52.443-395.051 52.221 13.633-64.638 42.041-125.243 83.002-177.072s93.363-93.469 153.103-121.666zM409.443 96.477l-0.056 0.168-1.335 0.224 1.391-0.333v-0.056zM794.525 190.896c-1.058 1.615-61.963 94.364-223.523 154.879-47.533-86.752-100.935-170.156-159.834-249.634 66.821-16.331 136.601-16.241 203.38 0.259 66.773 16.5 128.569 48.922 180.089 94.496h-0.112zM939.718 507.671c-6.124-1.335-150.983-32.513-298.013-14.029l-9.243-21.99c-8.931-20.959-18.416-41.675-28.448-62.131 168.965-69.033 237.553-168.13 238.389-169.3 62.125 75.367 96.48 169.782 97.316 267.45zM1002.851 411.136c-6.647-32.282-16.457-63.834-29.283-94.198-37.829-89.506-100.895-166.067-181.491-220.351-26.79-18.141-55.276-33.634-85.067-46.265-61.741-26.040-128.067-39.454-195.073-39.454-67.007 0-133.336 13.414-195.075 39.454-89.456 37.913-165.998 100.958-220.351 181.491-55.953 82.697-85.783 180.294-85.624 280.142-0.168 67.002 13.24 133.341 39.416 195.019 12.582 29.84 28.059 58.4 46.209 85.179 54.348 80.523 130.892 143.552 220.351 181.435 30.325 12.849 61.865 22.625 94.142 29.173 99.325 20.565 202.556 10.394 295.952-29.173 29.807-12.609 58.317-28.081 85.123-46.209 26.612-17.982 51.441-38.413 74.156-61.073 58.717-58.6 101.935-130.885 125.775-210.341s27.547-163.592 10.789-244.836h0.056z"></path>
</svg>
