<!-- Generated by IcoMoon.io -->
<svg version="1.1" xmlns="http://www.w3.org/2000/svg" width="1024" height="1024" viewBox="0 0 1024 1024">
<title></title>
<g id="icomoon-ignore">
</g>
<path fill="#000" d="M512 275.43c-130.656 0-236.57 105.914-236.57 236.57s105.914 236.57 236.57 236.57c130.656 0 236.57-105.914 236.57-236.57v0c-0.147-130.594-105.975-236.423-236.558-236.57h-0.012zM512 686.864c-96.573 0-174.864-78.291-174.864-174.864s78.291-174.864 174.864-174.864c96.573 0 174.864 78.291 174.864 174.864v0c-0.116 96.523-78.327 174.748-174.842 174.864h-0.008zM738.288 8h-452.576c-153.299 0.182-277.53 124.413-277.712 277.699v452.589c0.182 153.299 124.413 277.53 277.699 277.712h452.589c153.299-0.182 277.53-124.413 277.712-277.699v-452.589c-0.182-153.299-124.413-277.53-277.699-277.712h-0.013zM954.28 738.288c-0.135 119.243-96.764 215.857-215.982 216.006h-452.586c-119.243-0.135-215.857-96.764-216.006-215.982v-452.586c0.135-119.243 96.764-215.857 215.982-216.006h452.586c119.243 0.135 215.857 96.764 216.006 215.982v0.010zM830.854 244.57c0 28.405-23.019 51.424-51.424 51.424s-51.424-23.019-51.424-51.424c0-28.405 23.019-51.424 51.424-51.424v0c28.395 0.041 51.397 23.043 51.424 51.421v0.003z"></path>
</svg>
