<!-- Generated by IcoMoon.io -->
<svg version="1.1" xmlns="http://www.w3.org/2000/svg" width="1024" height="1024" viewBox="0 0 1024 1024">
<title></title>
<g id="icomoon-ignore">
</g>
<path fill="#000" d="M942.702 66.838c7.985 0 14.445 6.46 14.445 14.445v861.551c0 7.985-6.46 14.445-14.445 14.445v0h-861.457c-7.985 0-14.445-6.46-14.445-14.445v0-861.551c0-7.985 6.46-14.445 14.445-14.445v0h861.551zM942.781 0.32h-861.551c-44.707 0-80.963 36.256-80.963 80.963v0 861.551c0.062 44.651 36.27 80.845 80.963 80.845h861.551c44.707 0 80.963-36.256 80.963-80.963v0-861.457c0-44.707-36.256-80.963-80.963-80.963-0.053 0-0.067 0-0.12 0h0.002z"></path>
<path fill="#000" d="M238.124 372.944h120.048v427.056h-120.048v-427.056z"></path>
<path fill="#000" d="M647.47 372.946c-102.848 0-104.698 59.473-104.698 63.566v-63.566h-122.803v427.056h122.803v-243.757c0-19.050 5.628-59.984 63.763-59.984s57.623 58.646 57.623 58.646v245.606h121.465v-266.074c0-126.188-68.88-161.494-138.154-161.494z"></path>
<path fill="#000" d="M358.048 283.721c0 33.127-26.858 59.984-59.984 59.984s-59.984-26.858-59.984-59.984c0-33.127 26.858-59.984 59.984-59.984s59.984 26.858 59.984 59.984z"></path>
</svg>
